<svg xmlns="http://www.w3.org/2000/svg" width="802" height="158" viewBox="0 0 802 158" font-family="sans-serif"><style>.c{opacity:0;animation:s .4s ease-out forwards;transform-box:fill-box;transform-origin:center}@keyframes s{0%{opacity:0;transform:translateY(-8px) scale(.5)}100%{opacity:1;transform:translateY(0) scale(1)}}@media(prefers-reduced-motion:reduce){.c{animation:none;opacity:1}}text{fill:#7d8590;font-size:10px}text.t{fill:#e6edf3;font-size:12px;font-weight:bold}</style><rect class="c" x="30" y="20" width="11" height="11" rx="2" fill="#161b22" style="animation-delay:0.0s"/><rect class="c" x="30" y="34" width="11" height="11" rx="2" fill="#161b22" style="animation-delay:0.015s"/><rect class="c" x="30" y="48" width="11" height="11" rx="2" fill="#161b22" style="animation-delay:0.03s"/><rect class="c" x="30" y="62" width="11" height="11" rx="2" fill="#0e4429" style="animation-delay:0.045s"/><rect class="c" x="30" y="76" width="11" height="11" rx="2" fill="#0e4429" style="animation-delay:0.06s"/><rect class="c" x="30" y="90" width="11" height="11" rx="2" fill="#006d32" style="animation-delay:0.075s"/><rect class="c" x="30" y="104" width="11" height="11" rx="2" fill="#006d32" style="animation-delay:0.09s"/><rect class="c" x="44" y="20" width="11" height="11" rx="2" fill="#006d32" style="animation-delay:0.015s"/><rect class="c" x="44" y="34" width="11" height="11" rx="2" fill="#161b22" style="animation-delay:0.03s"/><rect class="c" x="44" y="48" width="11" height="11" rx="2" fill="#006d32" style="animation-delay:0.045s"/><rect class="c" x="44" y="62" width="11" height="11" rx="2" fill="#26a641" style="animation-delay:0.06s"/><rect class="c" x="44" y="76" width="11" height="11" rx="2" fill="#0e4429" style="animation-delay:0.075s"/><rect class="c" x="44" y="90" width="11" height="11" rx="2" fill="#006d32" style="animation-delay:0.09s"/><rect class="c" x="44" y="104" width="11" height="11" rx="2" fill="#006d32" style="animation-delay:0.105s"/><rect class="c" x="58" y="20" width="11" height="11" rx="2" fill="#006d32" style="animation-delay:0.03s"/><rect class="c" x="58" y="34" width="11" height="11" rx="2" fill="#0e4429" style="animation-delay:0.045s"/><rect class="c" x="58" y="48" width="11" height="11" rx="2" fill="#006d32" style="animation-delay:0.06s"/><rect class="c" x="58" y="62" width="11" height="11" rx="2" fill="#006d32" style="animation-delay:0.075s"/><rect class="c" x="58" y="76" width="11" height="11" rx="2" fill="#161b22" style="animation-delay:0.09s"/><rect class="c" x="58" y="90" width="11" height="11" rx="2" fill="#161b22" style="animation-delay:0.105s"/><rect class="c" x="58" y="104" width="11" height="11" rx="2" fill="#161b22" style="animation-delay:0.12s"/><rect class="c" x="72" y="20" width="11" height="11" rx="2" fill="#0e4429" style="animation-delay:0.045s"/><rect class="c" x="72" y="34" width="11" height="11" rx="2" fill="#0e4429" style="animation-delay:0.06s"/><rect class="c" x="72" y="48" width="11" height="11" rx="2" fill="#006d32" style="animation-delay:0.075s"/><rect class="c" x="72" y="62" width="11" height="11" rx="2" fill="#26a641" style="animation-delay:0.09s"/><rect class="c" x="72" y="76" width="11" height="11" rx="2" fill="#0e4429" style="animation-delay:0.105s"/><rect class="c" x="72" y="90" width="11" height="11" rx="2" fill="#161b22" style="animation-delay:0.12s"/><rect class="c" x="72" y="104" width="11" height="11" rx="2" fill="#0e4429" style="animation-delay:0.135s"/><rect class="c" x="86" y="20" width="11" height="11" rx="2" fill="#006d32" style="animation-delay:0.06s"/><rect class="c" x="86" y="34" width="11" height="11" rx="2" fill="#26a641" style="animation-delay:0.075s"/><rect class="c" x="86" y="48" width="11" height="11" rx="2" fill="#161b22" style="animation-delay:0.09s"/><rect class="c" x="86" y="62" width="11" height="11" rx="2" fill="#006d32" style="animation-delay:0.105s"/><rect class="c" x="86" y="76" width="11" height="11" rx="2" fill="#0e4429" style="animation-delay:0.12s"/><rect class="c" x="86" y="90" width="11" height="11" rx="2" fill="#0e4429" style="animation-delay:0.135s"/><rect class="c" x="86" y="104" width="11" height="11" rx="2" fill="#0e4429" style="animation-delay:0.15s"/><rect class="c" x="100" y="20" width="11" height="11" rx="2" fill="#161b22" style="animation-delay:0.075s"/><rect class="c" x="100" y="34" width="11" height="11" rx="2" fill="#161b22" style="animation-delay:0.09s"/><rect class="c" x="100" y="48" width="11" height="11" rx="2" fill="#0e4429" style="animation-delay:0.105s"/><rect class="c" x="100" y="62" width="11" height="11" rx="2" fill="#0e4429" style="animation-delay:0.12s"/><rect class="c" x="100" y="76" width="11" height="11" rx="2" fill="#006d32" style="animation-delay:0.135s"/><rect class="c" x="100" y="90" width="11" height="11" rx="2" fill="#0e4429" style="animation-delay:0.15s"/><rect class="c" x="100" y="104" width="11" height="11" rx="2" fill="#0e4429" style="animation-delay:0.16499999999999998s"/><rect class="c" x="114" y="20" width="11" height="11" rx="2" fill="#161b22" style="animation-delay:0.09s"/><rect class="c" x="114" y="34" width="11" height="11" rx="2" fill="#161b22" style="animation-delay:0.105s"/><rect class="c" x="114" y="48" width="11" height="11" rx="2" fill="#006d32" style="animation-delay:0.12s"/><rect class="c" x="114" y="62" width="11" height="11" rx="2" fill="#0e4429" style="animation-delay:0.135s"/><rect class="c" x="114" y="76" width="11" height="11" rx="2" fill="#161b22" style="animation-delay:0.15s"/><rect class="c" x="114" y="90" width="11" height="11" rx="2" fill="#161b22" style="animation-delay:0.16499999999999998s"/><rect class="c" x="114" y="104" width="11" height="11" rx="2" fill="#26a641" style="animation-delay:0.18s"/><rect class="c" x="128" y="20" width="11" height="11" rx="2" fill="#006d32" style="animation-delay:0.105s"/><rect class="c" x="128" y="34" width="11" height="11" rx="2" fill="#161b22" style="animation-delay:0.12s"/><rect class="c" x="128" y="48" width="11" height="11" rx="2" fill="#161b22" style="animation-delay:0.135s"/><rect class="c" x="128" y="62" width="11" height="11" rx="2" fill="#39d353" style="animation-delay:0.15s"/><rect class="c" x="128" y="76" width="11" height="11" rx="2" fill="#161b22" style="animation-delay:0.16499999999999998s"/><rect class="c" x="128" y="90" width="11" height="11" rx="2" fill="#0e4429" style="animation-delay:0.18s"/><rect class="c" x="128" y="104" width="11" height="11" rx="2" fill="#006d32" style="animation-delay:0.195s"/><rect class="c" x="142" y="20" width="11" height="11" rx="2" fill="#26a641" style="animation-delay:0.12s"/><rect class="c" x="142" y="34" width="11" height="11" rx="2" fill="#161b22" style="animation-delay:0.135s"/><rect class="c" x="142" y="48" width="11" height="11" rx="2" fill="#161b22" style="animation-delay:0.15s"/><rect class="c" x="142" y="62" width="11" height="11" rx="2" fill="#006d32" style="animation-delay:0.16499999999999998s"/><rect class="c" x="142" y="76" width="11" height="11" rx="2" fill="#0e4429" style="animation-delay:0.18s"/><rect class="c" x="142" y="90" width="11" height="11" rx="2" fill="#0e4429" style="animation-delay:0.195s"/><rect class="c" x="142" y="104" width="11" height="11" rx="2" fill="#26a641" style="animation-delay:0.21s"/><rect class="c" x="156" y="20" width="11" height="11" rx="2" fill="#006d32" style="animation-delay:0.135s"/><rect class="c" x="156" y="34" width="11" height="11" rx="2" fill="#161b22" style="animation-delay:0.15s"/><rect class="c" x="156" y="48" width="11" height="11" rx="2" fill="#006d32" style="animation-delay:0.16499999999999998s"/><rect class="c" x="156" y="62" width="11" height="11" rx="2" fill="#0e4429" style="animation-delay:0.18s"/><rect class="c" x="156" y="76" width="11" height="11" rx="2" fill="#006d32" style="animation-delay:0.195s"/><rect class="c" x="156" y="90" width="11" height="11" rx="2" fill="#0e4429" style="animation-delay:0.21s"/><rect class="c" x="156" y="104" width="11" height="11" rx="2" fill="#0e4429" style="animation-delay:0.22499999999999998s"/><rect class="c" x="170" y="20" width="11" height="11" rx="2" fill="#0e4429" style="animation-delay:0.15s"/><rect class="c" x="170" y="34" width="11" height="11" rx="2" fill="#006d32" style="animation-delay:0.16499999999999998s"/><rect class="c" x="170" y="48" width="11" height="11" rx="2" fill="#006d32" style="animation-delay:0.18s"/><rect class="c" x="170" y="62" width="11" height="11" rx="2" fill="#26a641" style="animation-delay:0.195s"/><rect class="c" x="170" y="76" width="11" height="11" rx="2" fill="#0e4429" style="animation-delay:0.21s"/><rect class="c" x="170" y="90" width="11" height="11" rx="2" fill="#161b22" style="animation-delay:0.22499999999999998s"/><rect class="c" x="170" y="104" width="11" height="11" rx="2" fill="#006d32" style="animation-delay:0.24s"/><rect class="c" x="184" y="20" width="11" height="11" rx="2" fill="#0e4429" style="animation-delay:0.16499999999999998s"/><rect class="c" x="184" y="34" width="11" height="11" rx="2" fill="#006d32" style="animation-delay:0.18s"/><rect class="c" x="184" y="48" width="11" height="11" rx="2" fill="#0e4429" style="animation-delay:0.195s"/><rect class="c" x="184" y="62" width="11" height="11" rx="2" fill="#0e4429" style="animation-delay:0.21s"/><rect class="c" x="184" y="76" width="11" height="11" rx="2" fill="#0e4429" style="animation-delay:0.22499999999999998s"/><rect class="c" x="184" y="90" width="11" height="11" rx="2" fill="#26a641" style="animation-delay:0.24s"/><rect class="c" x="184" y="104" width="11" height="11" rx="2" fill="#0e4429" style="animation-delay:0.255s"/><rect class="c" x="198" y="20" width="11" height="11" rx="2" fill="#006d32" style="animation-delay:0.18s"/><rect class="c" x="198" y="34" width="11" height="11" rx="2" fill="#0e4429" style="animation-delay:0.195s"/><rect class="c" x="198" y="48" width="11" height="11" rx="2" fill="#006d32" style="animation-delay:0.21s"/><rect class="c" x="198" y="62" width="11" height="11" rx="2" fill="#161b22" style="animation-delay:0.22499999999999998s"/><rect class="c" x="198" y="76" width="11" height="11" rx="2" fill="#0e4429" style="animation-delay:0.24s"/><rect class="c" x="198" y="90" width="11" height="11" rx="2" fill="#006d32" style="animation-delay:0.255s"/><rect class="c" x="198" y="104" width="11" height="11" rx="2" fill="#006d32" style="animation-delay:0.27s"/><rect class="c" x="212" y="20" width="11" height="11" rx="2" fill="#006d32" style="animation-delay:0.195s"/><rect class="c" x="212" y="34" width="11" height="11" rx="2" fill="#006d32" style="animation-delay:0.21s"/><rect class="c" x="212" y="48" width="11" height="11" rx="2" fill="#006d32" style="animation-delay:0.22499999999999998s"/><rect class="c" x="212" y="62" width="11" height="11" rx="2" fill="#006d32" style="animation-delay:0.24s"/><rect class="c" x="212" y="76" width="11" height="11" rx="2" fill="#006d32" style="animation-delay:0.255s"/><rect class="c" x="212" y="90" width="11" height="11" rx="2" fill="#0e4429" style="animation-delay:0.27s"/><rect class="c" x="212" y="104" width="11" height="11" rx="2" fill="#26a641" style="animation-delay:0.285s"/><rect class="c" x="226" y="20" width="11" height="11" rx="2" fill="#0e4429" style="animation-delay:0.21s"/><rect class="c" x="226" y="34" width="11" height="11" rx="2" fill="#0e4429" style="animation-delay:0.22499999999999998s"/><rect class="c" x="226" y="48" width="11" height="11" rx="2" fill="#161b22" style="animation-delay:0.24s"/><rect class="c" x="226" y="62" width="11" height="11" rx="2" fill="#0e4429" style="animation-delay:0.255s"/><rect class="c" x="226" y="76" width="11" height="11" rx="2" fill="#0e4429" style="animation-delay:0.27s"/><rect class="c" x="226" y="90" width="11" height="11" rx="2" fill="#161b22" style="animation-delay:0.285s"/><rect class="c" x="226" y="104" width="11" height="11" rx="2" fill="#39d353" style="animation-delay:0.3s"/><rect class="c" x="240" y="20" width="11" height="11" rx="2" fill="#006d32" style="animation-delay:0.22499999999999998s"/><rect class="c" x="240" y="34" width="11" height="11" rx="2" fill="#26a641" style="animation-delay:0.24s"/><rect class="c" x="240" y="48" width="11" height="11" rx="2" fill="#006d32" style="animation-delay:0.255s"/><rect class="c" x="240" y="62" width="11" height="11" rx="2" fill="#006d32" style="animation-delay:0.27s"/><rect class="c" x="240" y="76" width="11" height="11" rx="2" fill="#006d32" style="animation-delay:0.285s"/><rect class="c" x="240" y="90" width="11" height="11" rx="2" fill="#0e4429" style="animation-delay:0.3s"/><rect class="c" x="240" y="104" width="11" height="11" rx="2" fill="#161b22" style="animation-delay:0.315s"/><rect class="c" x="254" y="20" width="11" height="11" rx="2" fill="#0e4429" style="animation-delay:0.24s"/><rect class="c" x="254" y="34" width="11" height="11" rx="2" fill="#0e4429" style="animation-delay:0.255s"/><rect class="c" x="254" y="48" width="11" height="11" rx="2" fill="#006d32" style="animation-delay:0.27s"/><rect class="c" x="254" y="62" width="11" height="11" rx="2" fill="#0e4429" style="animation-delay:0.285s"/><rect class="c" x="254" y="76" width="11" height="11" rx="2" fill="#26a641" style="animation-delay:0.3s"/><rect class="c" x="254" y="90" width="11" height="11" rx="2" fill="#006d32" style="animation-delay:0.315s"/><rect class="c" x="254" y="104" width="11" height="11" rx="2" fill="#161b22" style="animation-delay:0.32999999999999996s"/><rect class="c" x="268" y="20" width="11" height="11" rx="2" fill="#006d32" style="animation-delay:0.255s"/><rect class="c" x="268" y="34" width="11" height="11" rx="2" fill="#161b22" style="animation-delay:0.27s"/><rect class="c" x="268" y="48" width="11" height="11" rx="2" fill="#0e4429" style="animation-delay:0.285s"/><rect class="c" x="268" y="62" width="11" height="11" rx="2" fill="#006d32" style="animation-delay:0.3s"/><rect class="c" x="268" y="76" width="11" height="11" rx="2" fill="#006d32" style="animation-delay:0.315s"/><rect class="c" x="268" y="90" width="11" height="11" rx="2" fill="#0e4429" style="animation-delay:0.32999999999999996s"/><rect class="c" x="268" y="104" width="11" height="11" rx="2" fill="#006d32" style="animation-delay:0.345s"/><rect class="c" x="282" y="20" width="11" height="11" rx="2" fill="#26a641" style="animation-delay:0.27s"/><rect class="c" x="282" y="34" width="11" height="11" rx="2" fill="#161b22" style="animation-delay:0.285s"/><rect class="c" x="282" y="48" width="11" height="11" rx="2" fill="#0e4429" style="animation-delay:0.3s"/><rect class="c" x="282" y="62" width="11" height="11" rx="2" fill="#0e4429" style="animation-delay:0.315s"/><rect class="c" x="282" y="76" width="11" height="11" rx="2" fill="#161b22" style="animation-delay:0.32999999999999996s"/><rect class="c" x="282" y="90" width="11" height="11" rx="2" fill="#161b22" style="animation-delay:0.345s"/><rect class="c" x="282" y="104" width="11" height="11" rx="2" fill="#26a641" style="animation-delay:0.36s"/><rect class="c" x="296" y="20" width="11" height="11" rx="2" fill="#006d32" style="animation-delay:0.285s"/><rect class="c" x="296" y="34" width="11" height="11" rx="2" fill="#006d32" style="animation-delay:0.3s"/><rect class="c" x="296" y="48" width="11" height="11" rx="2" fill="#26a641" style="animation-delay:0.315s"/><rect class="c" x="296" y="62" width="11" height="11" rx="2" fill="#26a641" style="animation-delay:0.32999999999999996s"/><rect class="c" x="296" y="76" width="11" height="11" rx="2" fill="#0e4429" style="animation-delay:0.345s"/><rect class="c" x="296" y="90" width="11" height="11" rx="2" fill="#26a641" style="animation-delay:0.36s"/><rect class="c" x="296" y="104" width="11" height="11" rx="2" fill="#26a641" style="animation-delay:0.375s"/><rect class="c" x="310" y="20" width="11" height="11" rx="2" fill="#26a641" style="animation-delay:0.3s"/><rect class="c" x="310" y="34" width="11" height="11" rx="2" fill="#006d32" style="animation-delay:0.315s"/><rect class="c" x="310" y="48" width="11" height="11" rx="2" fill="#0e4429" style="animation-delay:0.32999999999999996s"/><rect class="c" x="310" y="62" width="11" height="11" rx="2" fill="#0e4429" style="animation-delay:0.345s"/><rect class="c" x="310" y="76" width="11" height="11" rx="2" fill="#161b22" style="animation-delay:0.36s"/><rect class="c" x="310" y="90" width="11" height="11" rx="2" fill="#006d32" style="animation-delay:0.375s"/><rect class="c" x="310" y="104" width="11" height="11" rx="2" fill="#006d32" style="animation-delay:0.39s"/><rect class="c" x="324" y="20" width="11" height="11" rx="2" fill="#006d32" style="animation-delay:0.315s"/><rect class="c" x="324" y="34" width="11" height="11" rx="2" fill="#161b22" style="animation-delay:0.32999999999999996s"/><rect class="c" x="324" y="48" width="11" height="11" rx="2" fill="#161b22" style="animation-delay:0.345s"/><rect class="c" x="324" y="62" width="11" height="11" rx="2" fill="#006d32" style="animation-delay:0.36s"/><rect class="c" x="324" y="76" width="11" height="11" rx="2" fill="#161b22" style="animation-delay:0.375s"/><rect class="c" x="324" y="90" width="11" height="11" rx="2" fill="#26a641" style="animation-delay:0.39s"/><rect class="c" x="324" y="104" width="11" height="11" rx="2" fill="#161b22" style="animation-delay:0.40499999999999997s"/><rect class="c" x="338" y="20" width="11" height="11" rx="2" fill="#26a641" style="animation-delay:0.32999999999999996s"/><rect class="c" x="338" y="34" width="11" height="11" rx="2" fill="#0e4429" style="animation-delay:0.345s"/><rect class="c" x="338" y="48" width="11" height="11" rx="2" fill="#0e4429" style="animation-delay:0.36s"/><rect class="c" x="338" y="62" width="11" height="11" rx="2" fill="#161b22" style="animation-delay:0.375s"/><rect class="c" x="338" y="76" width="11" height="11" rx="2" fill="#26a641" style="animation-delay:0.39s"/><rect class="c" x="338" y="90" width="11" height="11" rx="2" fill="#006d32" style="animation-delay:0.40499999999999997s"/><rect class="c" x="338" y="104" width="11" height="11" rx="2" fill="#006d32" style="animation-delay:0.42s"/><rect class="c" x="352" y="20" width="11" height="11" rx="2" fill="#26a641" style="animation-delay:0.345s"/><rect class="c" x="352" y="34" width="11" height="11" rx="2" fill="#006d32" style="animation-delay:0.36s"/><rect class="c" x="352" y="48" width="11" height="11" rx="2" fill="#006d32" style="animation-delay:0.375s"/><rect class="c" x="352" y="62" width="11" height="11" rx="2" fill="#006d32" style="animation-delay:0.39s"/><rect class="c" x="352" y="76" width="11" height="11" rx="2" fill="#0e4429" style="animation-delay:0.40499999999999997s"/><rect class="c" x="352" y="90" width="11" height="11" rx="2" fill="#161b22" style="animation-delay:0.42s"/><rect class="c" x="352" y="104" width="11" height="11" rx="2" fill="#006d32" style="animation-delay:0.435s"/><rect class="c" x="366" y="20" width="11" height="11" rx="2" fill="#006d32" style="animation-delay:0.36s"/><rect class="c" x="366" y="34" width="11" height="11" rx="2" fill="#26a641" style="animation-delay:0.375s"/><rect class="c" x="366" y="48" width="11" height="11" rx="2" fill="#0e4429" style="animation-delay:0.39s"/><rect class="c" x="366" y="62" width="11" height="11" rx="2" fill="#006d32" style="animation-delay:0.40499999999999997s"/><rect class="c" x="366" y="76" width="11" height="11" rx="2" fill="#0e4429" style="animation-delay:0.42s"/><rect class="c" x="366" y="90" width="11" height="11" rx="2" fill="#26a641" style="animation-delay:0.435s"/><rect class="c" x="366" y="104" width="11" height="11" rx="2" fill="#26a641" style="animation-delay:0.44999999999999996s"/><rect class="c" x="380" y="20" width="11" height="11" rx="2" fill="#0e4429" style="animation-delay:0.375s"/><rect class="c" x="380" y="34" width="11" height="11" rx="2" fill="#006d32" style="animation-delay:0.39s"/><rect class="c" x="380" y="48" width="11" height="11" rx="2" fill="#006d32" style="animation-delay:0.40499999999999997s"/><rect class="c" x="380" y="62" width="11" height="11" rx="2" fill="#0e4429" style="animation-delay:0.42s"/><rect class="c" x="380" y="76" width="11" height="11" rx="2" fill="#161b22" style="animation-delay:0.435s"/><rect class="c" x="380" y="90" width="11" height="11" rx="2" fill="#161b22" style="animation-delay:0.44999999999999996s"/><rect class="c" x="380" y="104" width="11" height="11" rx="2" fill="#161b22" style="animation-delay:0.46499999999999997s"/><rect class="c" x="394" y="20" width="11" height="11" rx="2" fill="#0e4429" style="animation-delay:0.39s"/><rect class="c" x="394" y="34" width="11" height="11" rx="2" fill="#006d32" style="animation-delay:0.40499999999999997s"/><rect class="c" x="394" y="48" width="11" height="11" rx="2" fill="#0e4429" style="animation-delay:0.42s"/><rect class="c" x="394" y="62" width="11" height="11" rx="2" fill="#0e4429" style="animation-delay:0.435s"/><rect class="c" x="394" y="76" width="11" height="11" rx="2" fill="#0e4429" style="animation-delay:0.44999999999999996s"/><rect class="c" x="394" y="90" width="11" height="11" rx="2" fill="#26a641" style="animation-delay:0.46499999999999997s"/><rect class="c" x="394" y="104" width="11" height="11" rx="2" fill="#0e4429" style="animation-delay:0.48s"/><rect class="c" x="408" y="20" width="11" height="11" rx="2" fill="#161b22" style="animation-delay:0.40499999999999997s"/><rect class="c" x="408" y="34" width="11" height="11" rx="2" fill="#006d32" style="animation-delay:0.42s"/><rect class="c" x="408" y="48" width="11" height="11" rx="2" fill="#0e4429" style="animation-delay:0.435s"/><rect class="c" x="408" y="62" width="11" height="11" rx="2" fill="#006d32" style="animation-delay:0.44999999999999996s"/><rect class="c" x="408" y="76" width="11" height="11" rx="2" fill="#0e4429" style="animation-delay:0.46499999999999997s"/><rect class="c" x="408" y="90" width="11" height="11" rx="2" fill="#0e4429" style="animation-delay:0.48s"/><rect class="c" x="408" y="104" width="11" height="11" rx="2" fill="#0e4429" style="animation-delay:0.495s"/><rect class="c" x="422" y="20" width="11" height="11" rx="2" fill="#0e4429" style="animation-delay:0.42s"/><rect class="c" x="422" y="34" width="11" height="11" rx="2" fill="#006d32" style="animation-delay:0.435s"/><rect class="c" x="422" y="48" width="11" height="11" rx="2" fill="#006d32" style="animation-delay:0.44999999999999996s"/><rect class="c" x="422" y="62" width="11" height="11" rx="2" fill="#0e4429" style="animation-delay:0.46499999999999997s"/><rect class="c" x="422" y="76" width="11" height="11" rx="2" fill="#006d32" style="animation-delay:0.48s"/><rect class="c" x="422" y="90" width="11" height="11" rx="2" fill="#006d32" style="animation-delay:0.495s"/><rect class="c" x="422" y="104" width="11" height="11" rx="2" fill="#0e4429" style="animation-delay:0.51s"/><rect class="c" x="436" y="20" width="11" height="11" rx="2" fill="#006d32" style="animation-delay:0.435s"/><rect class="c" x="436" y="34" width="11" height="11" rx="2" fill="#161b22" style="animation-delay:0.44999999999999996s"/><rect class="c" x="436" y="48" width="11" height="11" rx="2" fill="#006d32" style="animation-delay:0.46499999999999997s"/><rect class="c" x="436" y="62" width="11" height="11" rx="2" fill="#0e4429" style="animation-delay:0.48s"/><rect class="c" x="436" y="76" width="11" height="11" rx="2" fill="#006d32" style="animation-delay:0.495s"/><rect class="c" x="436" y="90" width="11" height="11" rx="2" fill="#0e4429" style="animation-delay:0.51s"/><rect class="c" x="436" y="104" width="11" height="11" rx="2" fill="#0e4429" style="animation-delay:0.525s"/><rect class="c" x="450" y="20" width="11" height="11" rx="2" fill="#161b22" style="animation-delay:0.44999999999999996s"/><rect class="c" x="450" y="34" width="11" height="11" rx="2" fill="#39d353" style="animation-delay:0.46499999999999997s"/><rect class="c" x="450" y="48" width="11" height="11" rx="2" fill="#0e4429" style="animation-delay:0.48s"/><rect class="c" x="450" y="62" width="11" height="11" rx="2" fill="#0e4429" style="animation-delay:0.495s"/><rect class="c" x="450" y="76" width="11" height="11" rx="2" fill="#0e4429" style="animation-delay:0.51s"/><rect class="c" x="450" y="90" width="11" height="11" rx="2" fill="#26a641" style="animation-delay:0.525s"/><rect class="c" x="450" y="104" width="11" height="11" rx="2" fill="#26a641" style="animation-delay:0.54s"/><rect class="c" x="464" y="20" width="11" height="11" rx="2" fill="#006d32" style="animation-delay:0.46499999999999997s"/><rect class="c" x="464" y="34" width="11" height="11" rx="2" fill="#006d32" style="animation-delay:0.48s"/><rect class="c" x="464" y="48" width="11" height="11" rx="2" fill="#006d32" style="animation-delay:0.495s"/><rect class="c" x="464" y="62" width="11" height="11" rx="2" fill="#006d32" style="animation-delay:0.51s"/><rect class="c" x="464" y="76" width="11" height="11" rx="2" fill="#26a641" style="animation-delay:0.525s"/><rect class="c" x="464" y="90" width="11" height="11" rx="2" fill="#0e4429" style="animation-delay:0.54s"/><rect class="c" x="464" y="104" width="11" height="11" rx="2" fill="#0e4429" style="animation-delay:0.5549999999999999s"/><rect class="c" x="478" y="20" width="11" height="11" rx="2" fill="#006d32" style="animation-delay:0.48s"/><rect class="c" x="478" y="34" width="11" height="11" rx="2" fill="#26a641" style="animation-delay:0.495s"/><rect class="c" x="478" y="48" width="11" height="11" rx="2" fill="#0e4429" style="animation-delay:0.51s"/><rect class="c" x="478" y="62" width="11" height="11" rx="2" fill="#161b22" style="animation-delay:0.525s"/><rect class="c" x="478" y="76" width="11" height="11" rx="2" fill="#161b22" style="animation-delay:0.54s"/><rect class="c" x="478" y="90" width="11" height="11" rx="2" fill="#0e4429" style="animation-delay:0.5549999999999999s"/><rect class="c" x="478" y="104" width="11" height="11" rx="2" fill="#006d32" style="animation-delay:0.57s"/><rect class="c" x="492" y="20" width="11" height="11" rx="2" fill="#161b22" style="animation-delay:0.495s"/><rect class="c" x="492" y="34" width="11" height="11" rx="2" fill="#0e4429" style="animation-delay:0.51s"/><rect class="c" x="492" y="48" width="11" height="11" rx="2" fill="#0e4429" style="animation-delay:0.525s"/><rect class="c" x="492" y="62" width="11" height="11" rx="2" fill="#0e4429" style="animation-delay:0.54s"/><rect class="c" x="492" y="76" width="11" height="11" rx="2" fill="#161b22" style="animation-delay:0.5549999999999999s"/><rect class="c" x="492" y="90" width="11" height="11" rx="2" fill="#26a641" style="animation-delay:0.57s"/><rect class="c" x="492" y="104" width="11" height="11" rx="2" fill="#0e4429" style="animation-delay:0.585s"/><rect class="c" x="506" y="20" width="11" height="11" rx="2" fill="#006d32" style="animation-delay:0.51s"/><rect class="c" x="506" y="34" width="11" height="11" rx="2" fill="#006d32" style="animation-delay:0.525s"/><rect class="c" x="506" y="48" width="11" height="11" rx="2" fill="#0e4429" style="animation-delay:0.54s"/><rect class="c" x="506" y="62" width="11" height="11" rx="2" fill="#161b22" style="animation-delay:0.5549999999999999s"/><rect class="c" x="506" y="76" width="11" height="11" rx="2" fill="#26a641" style="animation-delay:0.57s"/><rect class="c" x="506" y="90" width="11" height="11" rx="2" fill="#26a641" style="animation-delay:0.585s"/><rect class="c" x="506" y="104" width="11" height="11" rx="2" fill="#0e4429" style="animation-delay:0.6s"/><rect class="c" x="520" y="20" width="11" height="11" rx="2" fill="#0e4429" style="animation-delay:0.525s"/><rect class="c" x="520" y="34" width="11" height="11" rx="2" fill="#26a641" style="animation-delay:0.54s"/><rect class="c" x="520" y="48" width="11" height="11" rx="2" fill="#161b22" style="animation-delay:0.5549999999999999s"/><rect class="c" x="520" y="62" width="11" height="11" rx="2" fill="#006d32" style="animation-delay:0.57s"/><rect class="c" x="520" y="76" width="11" height="11" rx="2" fill="#161b22" style="animation-delay:0.585s"/><rect class="c" x="520" y="90" width="11" height="11" rx="2" fill="#161b22" style="animation-delay:0.6s"/><rect class="c" x="520" y="104" width="11" height="11" rx="2" fill="#161b22" style="animation-delay:0.615s"/><rect class="c" x="534" y="20" width="11" height="11" rx="2" fill="#0e4429" style="animation-delay:0.54s"/><rect class="c" x="534" y="34" width="11" height="11" rx="2" fill="#161b22" style="animation-delay:0.5549999999999999s"/><rect class="c" x="534" y="48" width="11" height="11" rx="2" fill="#0e4429" style="animation-delay:0.57s"/><rect class="c" x="534" y="62" width="11" height="11" rx="2" fill="#006d32" style="animation-delay:0.585s"/><rect class="c" x="534" y="76" width="11" height="11" rx="2" fill="#006d32" style="animation-delay:0.6s"/><rect class="c" x="534" y="90" width="11" height="11" rx="2" fill="#0e4429" style="animation-delay:0.615s"/><rect class="c" x="534" y="104" width="11" height="11" rx="2" fill="#006d32" style="animation-delay:0.63s"/><rect class="c" x="548" y="20" width="11" height="11" rx="2" fill="#006d32" style="animation-delay:0.5549999999999999s"/><rect class="c" x="548" y="34" width="11" height="11" rx="2" fill="#0e4429" style="animation-delay:0.57s"/><rect class="c" x="548" y="48" width="11" height="11" rx="2" fill="#0e4429" style="animation-delay:0.585s"/><rect class="c" x="548" y="62" width="11" height="11" rx="2" fill="#26a641" style="animation-delay:0.6s"/><rect class="c" x="548" y="76" width="11" height="11" rx="2" fill="#39d353" style="animation-delay:0.615s"/><rect class="c" x="548" y="90" width="11" height="11" rx="2" fill="#006d32" style="animation-delay:0.63s"/><rect class="c" x="548" y="104" width="11" height="11" rx="2" fill="#26a641" style="animation-delay:0.645s"/><rect class="c" x="562" y="20" width="11" height="11" rx="2" fill="#161b22" style="animation-delay:0.57s"/><rect class="c" x="562" y="34" width="11" height="11" rx="2" fill="#26a641" style="animation-delay:0.585s"/><rect class="c" x="562" y="48" width="11" height="11" rx="2" fill="#161b22" style="animation-delay:0.6s"/><rect class="c" x="562" y="62" width="11" height="11" rx="2" fill="#006d32" style="animation-delay:0.615s"/><rect class="c" x="562" y="76" width="11" height="11" rx="2" fill="#006d32" style="animation-delay:0.63s"/><rect class="c" x="562" y="90" width="11" height="11" rx="2" fill="#0e4429" style="animation-delay:0.645s"/><rect class="c" x="562" y="104" width="11" height="11" rx="2" fill="#161b22" style="animation-delay:0.6599999999999999s"/><rect class="c" x="576" y="20" width="11" height="11" rx="2" fill="#0e4429" style="animation-delay:0.585s"/><rect class="c" x="576" y="34" width="11" height="11" rx="2" fill="#161b22" style="animation-delay:0.6s"/><rect class="c" x="576" y="48" width="11" height="11" rx="2" fill="#006d32" style="animation-delay:0.615s"/><rect class="c" x="576" y="62" width="11" height="11" rx="2" fill="#006d32" style="animation-delay:0.63s"/><rect class="c" x="576" y="76" width="11" height="11" rx="2" fill="#006d32" style="animation-delay:0.645s"/><rect class="c" x="576" y="90" width="11" height="11" rx="2" fill="#161b22" style="animation-delay:0.6599999999999999s"/><rect class="c" x="576" y="104" width="11" height="11" rx="2" fill="#006d32" style="animation-delay:0.6749999999999999s"/><rect class="c" x="590" y="20" width="11" height="11" rx="2" fill="#0e4429" style="animation-delay:0.6s"/><rect class="c" x="590" y="34" width="11" height="11" rx="2" fill="#006d32" style="animation-delay:0.615s"/><rect class="c" x="590" y="48" width="11" height="11" rx="2" fill="#0e4429" style="animation-delay:0.63s"/><rect class="c" x="590" y="62" width="11" height="11" rx="2" fill="#006d32" style="animation-delay:0.645s"/><rect class="c" x="590" y="76" width="11" height="11" rx="2" fill="#006d32" style="animation-delay:0.6599999999999999s"/><rect class="c" x="590" y="90" width="11" height="11" rx="2" fill="#006d32" style="animation-delay:0.6749999999999999s"/><rect class="c" x="590" y="104" width="11" height="11" rx="2" fill="#161b22" style="animation-delay:0.69s"/><rect class="c" x="604" y="20" width="11" height="11" rx="2" fill="#006d32" style="animation-delay:0.615s"/><rect class="c" x="604" y="34" width="11" height="11" rx="2" fill="#161b22" style="animation-delay:0.63s"/><rect class="c" x="604" y="48" width="11" height="11" rx="2" fill="#006d32" style="animation-delay:0.645s"/><rect class="c" x="604" y="62" width="11" height="11" rx="2" fill="#0e4429" style="animation-delay:0.6599999999999999s"/><rect class="c" x="604" y="76" width="11" height="11" rx="2" fill="#006d32" style="animation-delay:0.6749999999999999s"/><rect class="c" x="604" y="90" width="11" height="11" rx="2" fill="#161b22" style="animation-delay:0.69s"/><rect class="c" x="604" y="104" width="11" height="11" rx="2" fill="#006d32" style="animation-delay:0.705s"/><rect class="c" x="618" y="20" width="11" height="11" rx="2" fill="#161b22" style="animation-delay:0.63s"/><rect class="c" x="618" y="34" width="11" height="11" rx="2" fill="#0e4429" style="animation-delay:0.645s"/><rect class="c" x="618" y="48" width="11" height="11" rx="2" fill="#161b22" style="animation-delay:0.6599999999999999s"/><rect class="c" x="618" y="62" width="11" height="11" rx="2" fill="#161b22" style="animation-delay:0.6749999999999999s"/><rect class="c" x="618" y="76" width="11" height="11" rx="2" fill="#161b22" style="animation-delay:0.69s"/><rect class="c" x="618" y="90" width="11" height="11" rx="2" fill="#0e4429" style="animation-delay:0.705s"/><rect class="c" x="618" y="104" width="11" height="11" rx="2" fill="#26a641" style="animation-delay:0.72s"/><rect class="c" x="632" y="20" width="11" height="11" rx="2" fill="#161b22" style="animation-delay:0.645s"/><rect class="c" x="632" y="34" width="11" height="11" rx="2" fill="#006d32" style="animation-delay:0.6599999999999999s"/><rect class="c" x="632" y="48" width="11" height="11" rx="2" fill="#26a641" style="animation-delay:0.6749999999999999s"/><rect class="c" x="632" y="62" width="11" height="11" rx="2" fill="#26a641" style="animation-delay:0.69s"/><rect class="c" x="632" y="76" width="11" height="11" rx="2" fill="#26a641" style="animation-delay:0.705s"/><rect class="c" x="632" y="90" width="11" height="11" rx="2" fill="#0e4429" style="animation-delay:0.72s"/><rect class="c" x="632" y="104" width="11" height="11" rx="2" fill="#161b22" style="animation-delay:0.735s"/><rect class="c" x="646" y="20" width="11" height="11" rx="2" fill="#0e4429" style="animation-delay:0.6599999999999999s"/><rect class="c" x="646" y="34" width="11" height="11" rx="2" fill="#0e4429" style="animation-delay:0.6749999999999999s"/><rect class="c" x="646" y="48" width="11" height="11" rx="2" fill="#006d32" style="animation-delay:0.69s"/><rect class="c" x="646" y="62" width="11" height="11" rx="2" fill="#006d32" style="animation-delay:0.705s"/><rect class="c" x="646" y="76" width="11" height="11" rx="2" fill="#006d32" style="animation-delay:0.72s"/><rect class="c" x="646" y="90" width="11" height="11" rx="2" fill="#0e4429" style="animation-delay:0.735s"/><rect class="c" x="646" y="104" width="11" height="11" rx="2" fill="#006d32" style="animation-delay:0.75s"/><rect class="c" x="660" y="20" width="11" height="11" rx="2" fill="#26a641" style="animation-delay:0.6749999999999999s"/><rect class="c" x="660" y="34" width="11" height="11" rx="2" fill="#39d353" style="animation-delay:0.69s"/><rect class="c" x="660" y="48" width="11" height="11" rx="2" fill="#161b22" style="animation-delay:0.705s"/><rect class="c" x="660" y="62" width="11" height="11" rx="2" fill="#0e4429" style="animation-delay:0.72s"/><rect class="c" x="660" y="76" width="11" height="11" rx="2" fill="#0e4429" style="animation-delay:0.735s"/><rect class="c" x="660" y="90" width="11" height="11" rx="2" fill="#26a641" style="animation-delay:0.75s"/><rect class="c" x="660" y="104" width="11" height="11" rx="2" fill="#161b22" style="animation-delay:0.765s"/><rect class="c" x="674" y="20" width="11" height="11" rx="2" fill="#0e4429" style="animation-delay:0.69s"/><rect class="c" x="674" y="34" width="11" height="11" rx="2" fill="#0e4429" style="animation-delay:0.705s"/><rect class="c" x="674" y="48" width="11" height="11" rx="2" fill="#006d32" style="animation-delay:0.72s"/><rect class="c" x="674" y="62" width="11" height="11" rx="2" fill="#006d32" style="animation-delay:0.735s"/><rect class="c" x="674" y="76" width="11" height="11" rx="2" fill="#161b22" style="animation-delay:0.75s"/><rect class="c" x="674" y="90" width="11" height="11" rx="2" fill="#26a641" style="animation-delay:0.765s"/><rect class="c" x="674" y="104" width="11" height="11" rx="2" fill="#006d32" style="animation-delay:0.78s"/><rect class="c" x="688" y="20" width="11" height="11" rx="2" fill="#161b22" style="animation-delay:0.705s"/><rect class="c" x="688" y="34" width="11" height="11" rx="2" fill="#26a641" style="animation-delay:0.72s"/><rect class="c" x="688" y="48" width="11" height="11" rx="2" fill="#0e4429" style="animation-delay:0.735s"/><rect class="c" x="688" y="62" width="11" height="11" rx="2" fill="#0e4429" style="animation-delay:0.75s"/><rect class="c" x="688" y="76" width="11" height="11" rx="2" fill="#161b22" style="animation-delay:0.765s"/><rect class="c" x="688" y="90" width="11" height="11" rx="2" fill="#161b22" style="animation-delay:0.78s"/><rect class="c" x="688" y="104" width="11" height="11" rx="2" fill="#26a641" style="animation-delay:0.7949999999999999s"/><rect class="c" x="702" y="20" width="11" height="11" rx="2" fill="#0e4429" style="animation-delay:0.72s"/><rect class="c" x="702" y="34" width="11" height="11" rx="2" fill="#006d32" style="animation-delay:0.735s"/><rect class="c" x="702" y="48" width="11" height="11" rx="2" fill="#0e4429" style="animation-delay:0.75s"/><rect class="c" x="702" y="62" width="11" height="11" rx="2" fill="#0e4429" style="animation-delay:0.765s"/><rect class="c" x="702" y="76" width="11" height="11" rx="2" fill="#0e4429" style="animation-delay:0.78s"/><rect class="c" x="702" y="90" width="11" height="11" rx="2" fill="#0e4429" style="animation-delay:0.7949999999999999s"/><rect class="c" x="702" y="104" width="11" height="11" rx="2" fill="#006d32" style="animation-delay:0.8099999999999999s"/><rect class="c" x="716" y="20" width="11" height="11" rx="2" fill="#0e4429" style="animation-delay:0.735s"/><rect class="c" x="716" y="34" width="11" height="11" rx="2" fill="#006d32" style="animation-delay:0.75s"/><rect class="c" x="716" y="48" width="11" height="11" rx="2" fill="#006d32" style="animation-delay:0.765s"/><rect class="c" x="716" y="62" width="11" height="11" rx="2" fill="#26a641" style="animation-delay:0.78s"/><rect class="c" x="716" y="76" width="11" height="11" rx="2" fill="#006d32" style="animation-delay:0.7949999999999999s"/><rect class="c" x="716" y="90" width="11" height="11" rx="2" fill="#006d32" style="animation-delay:0.8099999999999999s"/><rect class="c" x="716" y="104" width="11" height="11" rx="2" fill="#0e4429" style="animation-delay:0.825s"/><rect class="c" x="730" y="20" width="11" height="11" rx="2" fill="#0e4429" style="animation-delay:0.75s"/><rect class="c" x="730" y="34" width="11" height="11" rx="2" fill="#0e4429" style="animation-delay:0.765s"/><rect class="c" x="730" y="48" width="11" height="11" rx="2" fill="#0e4429" style="animation-delay:0.78s"/><rect class="c" x="730" y="62" width="11" height="11" rx="2" fill="#0e4429" style="animation-delay:0.7949999999999999s"/><rect class="c" x="730" y="76" width="11" height="11" rx="2" fill="#161b22" style="animation-delay:0.8099999999999999s"/><rect class="c" x="730" y="90" width="11" height="11" rx="2" fill="#006d32" style="animation-delay:0.825s"/><rect class="c" x="730" y="104" width="11" height="11" rx="2" fill="#0e4429" style="animation-delay:0.84s"/><rect class="c" x="744" y="20" width="11" height="11" rx="2" fill="#161b22" style="animation-delay:0.765s"/><rect class="c" x="744" y="34" width="11" height="11" rx="2" fill="#161b22" style="animation-delay:0.78s"/><rect class="c" x="744" y="48" width="11" height="11" rx="2" fill="#006d32" style="animation-delay:0.7949999999999999s"/><rect class="c" x="744" y="62" width="11" height="11" rx="2" fill="#0e4429" style="animation-delay:0.8099999999999999s"/><rect class="c" x="744" y="76" width="11" height="11" rx="2" fill="#006d32" style="animation-delay:0.825s"/><rect class="c" x="744" y="90" width="11" height="11" rx="2" fill="#26a641" style="animation-delay:0.84s"/><rect class="c" x="744" y="104" width="11" height="11" rx="2" fill="#26a641" style="animation-delay:0.855s"/><rect class="c" x="758" y="20" width="11" height="11" rx="2" fill="#26a641" style="animation-delay:0.78s"/><rect class="c" x="758" y="34" width="11" height="11" rx="2" fill="#006d32" style="animation-delay:0.7949999999999999s"/><rect class="c" x="758" y="48" width="11" height="11" rx="2" fill="#006d32" style="animation-delay:0.8099999999999999s"/><rect class="c" x="758" y="62" width="11" height="11" rx="2" fill="#26a641" style="animation-delay:0.825s"/><rect class="c" x="758" y="76" width="11" height="11" rx="2" fill="#39d353" style="animation-delay:0.84s"/><text x="30" y="143">Less</text><rect x="60" y="134" width="11" height="11" rx="2" fill="#161b22"/><rect x="74" y="134" width="11" height="11" rx="2" fill="#0e4429"/><rect x="88" y="134" width="11" height="11" rx="2" fill="#006d32"/><rect x="102" y="134" width="11" height="11" rx="2" fill="#26a641"/><rect x="116" y="134" width="11" height="11" rx="2" fill="#39d353"/><rect x="130" y="134" width="11" height="11" rx="2" fill="#69f0a0"/><text x="146" y="143">More</text><text class="t" x="772" y="143" text-anchor="end">1,668 contributions in the last year</text></svg>